<?xml version="1.0" encoding="UTF-8"?>
<svg xmlns="http://www.w3.org/2000/svg" viewBox="0 0 500 500">
  <defs>
    <style>
      .cls-1 {
        fill: #7f7f7f;
      }
    </style>
  </defs>
  <g id="Background">
    <rect class="cls-1" width="500" height="500"/>
  </g>
  <g id="Shapes">
    <g>
      <path class="cls-1" d="M159.87,218.92c0,2.69-1.51,4.2-4.2,4.2h-7.73c-2.69,0-4.2-1.51-4.2-4.2v-15.96l-3.36-3.36h-5.88l-3.36,3.36v35.95l3.36,3.36h12.77c2.18,0,3.7.67,5.21,2.18l5.71,5.71c1.51,1.51,2.18,3.02,2.18,5.21v45.36c0,2.18-.67,3.7-2.18,5.21l-5.71,5.71c-1.51,1.51-3.02,2.18-5.21,2.18h-19.49c-2.18,0-3.7-.67-5.21-2.18l-5.71-5.71c-1.51-1.51-2.18-3.02-2.18-5.21v-19.49c0-2.69,1.51-4.2,4.2-4.2h7.73c2.69,0,4.2,1.51,4.2,4.2v15.79l3.36,3.36h6.72l3.36-3.36v-37.63l-3.36-3.36h-12.77c-2.18,0-3.7-.67-5.21-2.18l-5.71-5.71c-1.51-1.51-2.18-3.02-2.18-5.21v-43.68c0-2.18.67-3.7,2.18-5.21l5.71-5.71c1.51-1.51,3.02-2.18,5.21-2.18h18.65c2.18,0,3.7.67,5.21,2.18l5.71,5.71c1.51,1.51,2.18,3.02,2.18,5.21v19.66Z"/>
      <path class="cls-1" d="M186.08,309.64c0,2.69-1.51,4.2-4.2,4.2h-7.73c-2.69,0-4.2-1.51-4.2-4.2v-119.28c0-2.69,1.51-4.2,4.2-4.2h29.23c2.18,0,3.7.67,5.21,2.18l5.71,5.71c1.51,1.51,2.18,3.02,2.18,5.21v50.4c0,2.18-.67,3.7-2.18,5.21l-5.71,5.71c-1.51,1.51-3.02,2.18-5.21,2.18h-17.3v46.87ZM200.36,245.97v-43.01l-3.36-3.36h-10.92v49.73h10.92l3.36-3.36Z"/>
      <path class="cls-1" d="M267.89,186.16c2.69,0,4.2,1.51,4.2,4.2v110.38c0,2.18-.67,3.7-2.18,5.21l-5.71,5.71c-1.51,1.51-3.02,2.18-5.21,2.18h-21c-2.18,0-3.7-.67-5.21-2.18l-5.71-5.71c-1.51-1.51-2.18-3.02-2.18-5.21v-110.38c0-2.69,1.51-4.2,4.2-4.2h7.73c2.69,0,4.2,1.51,4.2,4.2v106.35l3.36,3.36h8.23l3.36-3.36v-106.35c0-2.69,1.51-4.2,4.2-4.2h7.73Z"/>
      <path class="cls-1" d="M299.14,309.64c0,2.69-1.51,4.2-4.2,4.2h-7.73c-2.69,0-4.2-1.51-4.2-4.2v-119.28c0-2.69,1.51-4.2,4.2-4.2h30.07c2.18,0,3.7.67,5.21,2.18l5.71,5.71c1.51,1.51,2.18,3.02,2.18,5.21v47.04c0,2.18-.67,3.7-2.18,5.21l-6.72,6.72,9.24,51.07c.5,2.86-.84,4.54-3.86,4.54h-7.06c-2.52,0-4.03-1.18-4.54-3.86l-9.24-50.57h-6.89v50.23ZM314.26,242.94v-39.99l-3.36-3.36h-11.76v46.71h11.76l3.36-3.36Z"/>
      <path class="cls-1" d="M384.82,218.92c0,2.69-1.51,4.2-4.2,4.2h-7.73c-2.69,0-4.2-1.51-4.2-4.2v-15.96l-3.36-3.36h-5.88l-3.36,3.36v35.95l3.36,3.36h12.77c2.18,0,3.7.67,5.21,2.18l5.71,5.71c1.51,1.51,2.18,3.02,2.18,5.21v45.36c0,2.18-.67,3.7-2.18,5.21l-5.71,5.71c-1.51,1.51-3.02,2.18-5.21,2.18h-19.49c-2.18,0-3.7-.67-5.21-2.18l-5.71-5.71c-1.51-1.51-2.18-3.02-2.18-5.21v-19.49c0-2.69,1.51-4.2,4.2-4.2h7.73c2.69,0,4.2,1.51,4.2,4.2v15.79l3.36,3.36h6.72l3.36-3.36v-37.63l-3.36-3.36h-12.77c-2.18,0-3.7-.67-5.21-2.18l-5.71-5.71c-1.51-1.51-2.18-3.02-2.18-5.21v-43.68c0-2.18.67-3.7,2.18-5.21l5.71-5.71c1.51-1.51,3.02-2.18,5.21-2.18h18.65c2.18,0,3.7.67,5.21,2.18l5.71,5.71c1.51,1.51,2.18,3.02,2.18,5.21v19.66Z"/>
    </g>
    <g>
      <path class="cls-1" d="M50.14,168.38c-2.18,0-3.7-.67-5.21-2.18l-5.71-5.71c-1.51-1.51-2.18-3.02-2.18-5.21V53.8c0-2.18.67-3.7,2.18-5.21l5.71-5.71c1.51-1.51,3.02-2.18,5.21-2.18h20.33c2.18,0,3.7.67,5.21,2.18l5.71,5.71c1.51,1.51,2.18,3.02,2.18,5.21v19.82c0,2.69-1.51,4.2-4.2,4.2h-7.73c-2.69,0-4.2-1.51-4.2-4.2v-15.79l-3.36-3.36h-7.56l-3.36,3.36v93.41l3.36,3.36h7.56l3.36-3.36v-34.94h-3.86c-2.69,0-4.2-1.51-4.2-4.2v-6.05c0-2.69,1.51-4.2,4.2-4.2h15.79c2.69,0,4.2,1.51,4.2,4.2v49.23c0,2.18-.67,3.7-2.18,5.21l-5.71,5.71c-1.51,1.51-3.02,2.18-5.21,2.18h-20.33Z"/>
      <path class="cls-1" d="M128.43,40.69c2.18,0,3.7.67,5.21,2.18l5.71,5.71c1.51,1.51,2.18,3.02,2.18,5.21v101.48c0,2.18-.67,3.7-2.18,5.21l-5.71,5.71c-1.51,1.51-3.02,2.18-5.21,2.18h-22.01c-2.18,0-3.7-.67-5.21-2.18l-5.71-5.71c-1.51-1.51-2.18-3.02-2.18-5.21V53.8c0-2.18.67-3.7,2.18-5.21l5.71-5.71c1.51-1.51,3.02-2.18,5.21-2.18h22.01ZM112.8,54.47l-3.36,3.36v93.41l3.36,3.36h9.24l3.36-3.36V57.83l-3.36-3.36h-9.24Z"/>
    </g>
    <g>
      <path class="cls-1" d="M371.57,459.31c-2.18,0-3.7-.67-5.21-2.18l-5.71-5.71c-1.51-1.51-2.18-3.02-2.18-5.21v-101.48c0-2.18.67-3.7,2.18-5.21l5.71-5.71c1.51-1.51,3.02-2.18,5.21-2.18h20.33c2.18,0,3.7.67,5.21,2.18l5.71,5.71c1.51,1.51,2.18,3.02,2.18,5.21v19.82c0,2.69-1.51,4.2-4.2,4.2h-7.73c-2.69,0-4.2-1.51-4.2-4.2v-15.79l-3.36-3.36h-7.56l-3.36,3.36v93.41l3.36,3.36h7.56l3.36-3.36v-34.94h-3.86c-2.69,0-4.2-1.51-4.2-4.2v-6.05c0-2.69,1.51-4.2,4.2-4.2h15.79c2.69,0,4.2,1.51,4.2,4.2v49.23c0,2.18-.67,3.7-2.18,5.21l-5.71,5.71c-1.51,1.51-3.02,2.18-5.21,2.18h-20.33Z"/>
      <path class="cls-1" d="M449.86,331.62c2.18,0,3.7.67,5.21,2.18l5.71,5.71c1.51,1.51,2.18,3.02,2.18,5.21v101.48c0,2.18-.67,3.7-2.18,5.21l-5.71,5.71c-1.51,1.51-3.02,2.18-5.21,2.18h-22.01c-2.18,0-3.7-.67-5.21-2.18l-5.71-5.71c-1.51-1.51-2.18-3.02-2.18-5.21v-101.48c0-2.18.67-3.7,2.18-5.21l5.71-5.71c1.51-1.51,3.02-2.18,5.21-2.18h22.01ZM434.23,345.4l-3.36,3.36v93.41l3.36,3.36h9.24l3.36-3.36v-93.41l-3.36-3.36h-9.24Z"/>
    </g>
  </g>
</svg>