<?xml version="1.0" encoding="UTF-8"?>
<svg xmlns="http://www.w3.org/2000/svg" viewBox="0 0 500 500">
  <defs>
    <style>
      .cls-1 {
        fill: #4d34d3;
      }

      .cls-2 {
        fill: #adeeee;
      }
    </style>
  </defs>
  <g id="Background">
    <path class="cls-1" d="M.33,262.87c-.22-4.26-.33-8.55-.33-12.87v250h250c-4.32,0-8.61-.11-12.87-.33C110.12,493.09,6.91,389.88.33,262.87Z"/>
    <path class="cls-1" d="M500,250V0h-250c138.07,0,250,111.93,250,250Z"/>
    <path class="cls-1" d="M262.87,499.67c-4.26.22-8.55.33-12.87.33h250v-250c0,4.32-.11,8.61-.33,12.87-6.58,127.01-109.79,230.22-236.8,236.8Z"/>
    <path class="cls-1" d="M250,100c-82.84,0-150,67.16-150,150h300c0-82.84-67.16-150-150-150Z"/>
    <path class="cls-1" d="M250,0H0v250C0,111.93,111.93,0,250,0Z"/>
  </g>
  <g id="Shapes">
    <path class="cls-2" d="M250,0C111.93,0,0,111.93,0,250h100c0-82.84,67.16-150,150-150s150,67.16,150,150h100C500,111.93,388.07,0,250,0Z"/>
    <path class="cls-2" d="M0,250c0,137.15,112.85,250,250,250s250-112.85,250-250H0Z"/>
  </g>
</svg>